<svg xmlns="http://www.w3.org/2000/svg" width="114" height="35" fill="none" viewBox="0 0 114 35"><path fill="#5E6175" fill-rule="evenodd" d="M38.084 18.876V6.915h1.146c.933 0 1.69.756 1.69 1.688v5.318c1.837-1.636 3.4-2.29 5.481-2.333 3.993-.081 7.458 2.88 7.788 6.853.393 4.747-3.065 8.32-7.57 8.32-4.946 0-8.535-3.061-8.535-7.885Zm2.79.94c.279 2.47 2.643 4.512 5.136 4.551 3.248.05 5.46-2.063 5.46-5.19 0-3.126-2.163-5.19-5.32-5.19-3.373-.007-5.66 2.44-5.277 5.828Zm18.048-7.929v2.13c1.785-1.976 2.842-2.508 4.93-2.508.608 0 1.215.05 1.815.146v2.83a7.352 7.352 0 0 0-1.965-.262c-1.513 0-2.783.494-3.713 1.428-.817.818-1.06 1.458-1.06 2.743v7.879h-2.94V11.887h2.933Zm7.443 4.758c.151-1.402.424-2.16 1.028-2.89 1.21-1.482 3.389-2.246 6.473-2.246 2.45 0 4.236.38 5.476 1.196 1.03.67 1.453 1.663 1.453 3.413v6.389c0 1.4.364 1.895 1.361 1.868a6.24 6.24 0 0 0 .666-.06v1.926a4.374 4.374 0 0 1-1.542.232c-1.844 0-2.69-.554-3.265-2.16-1.814 1.663-3.69 2.363-6.382 2.363-3.599 0-5.807-1.634-5.807-4.29a3.776 3.776 0 0 1 2.267-3.5c1.09-.467 1.755-.613 4.87-.934 2.66-.262 3.116-.321 3.871-.556.817-.262 1.181-.7 1.181-1.429 0-1.547-1.3-2.246-4.023-2.246-2.574 0-3.9.51-4.433 1.809a1.755 1.755 0 0 1-1.622 1.107l-1.572.008ZM78 19.096a28.853 28.853 0 0 1-5.718 1.05c-2.632.262-3.448.76-3.448 2.071 0 1.458 1.21 2.225 3.599 2.225 1.965 0 3.448-.495 4.508-1.459.846-.788 1.059-1.341 1.059-2.718v-1.169Zm11.922 7.174h-.757a1.733 1.733 0 0 1-1.57-.974l-6.344-13.41h1.762a2.592 2.592 0 0 1 2.384 1.526l4.233 9.638 4.374-9.675a2.592 2.592 0 0 1 2.371-1.498h1.602l-6.493 13.434c-.295.59-.9.963-1.562.959Zm10.042-6.358c.302 2.772 2.476 4.492 5.716 4.492 1.84 0 3.218-.546 4.072-1.636a2.626 2.626 0 0 1 2.055-.988h1.706c-1.486 3.267-4.144 4.873-8.108 4.873-4.95 0-8.287-3.005-8.287-7.498 0-4.492 3.418-7.643 8.349-7.643 3.567 0 6.437 1.604 7.593 4.29.514 1.236.725 2.333.725 4.112l-13.82-.002Zm10.828-2.224c-.666-2.538-2.631-3.97-5.354-3.97-2.723 0-4.689 1.431-5.384 3.97h10.738Z" clip-rule="evenodd"/><path fill="url(#a)" fill-rule="evenodd" d="m28.985 8.339.816-2.001s-1.038-1.112-2.298-2.372c-1.26-1.26-3.93-.519-3.93-.519L20.533 0H9.856l-3.04 3.447s-2.67-.74-3.93.52A109.219 109.219 0 0 0 .588 6.336l.815 2.002-1.038 2.964s3.053 11.559 3.41 12.97c.705 2.78 1.187 3.854 3.19 5.262 2.001 1.409 5.634 3.854 6.227 4.225.594.37 1.335 1.002 2.002 1.002.668 0 1.41-.632 2.002-1.002.593-.37 4.227-2.816 6.228-4.225 2.003-1.408 2.484-2.483 3.189-5.262.358-1.411 3.41-12.97 3.41-12.97L28.985 8.34Z" clip-rule="evenodd"/><path fill="#fff" fill-rule="evenodd" d="M18.976 6.264c.445 0 3.744-.63 3.744-.63s3.91 4.725 3.91 5.734c0 .835-.336 1.162-.732 1.547-.083.08-.169.164-.254.255l-2.932 3.112-.096.098c-.293.294-.723.727-.42 1.446l.063.147c.334.779.745 1.741.221 2.716-.557 1.037-1.512 1.729-2.123 1.615-.612-.115-2.049-.865-2.577-1.208-.528-.343-2.203-1.723-2.203-2.251 0-.44 1.205-1.173 1.79-1.53.116-.07.208-.126.26-.162a14 14 0 0 1 .287-.18c.534-.332 1.498-.931 1.522-1.196.03-.328.019-.424-.412-1.233a14.783 14.783 0 0 0-.31-.546c-.409-.705-.868-1.494-.766-2.06.114-.638 1.115-1.004 1.962-1.314.106-.039.21-.076.309-.114l.883-.331c.846-.317 1.786-.669 1.94-.74.216-.1.16-.194-.49-.255l-.316-.033c-.804-.085-2.288-.243-3.01-.042-.142.04-.3.083-.468.128-.81.22-1.804.488-1.9.643a1.37 1.37 0 0 1-.048.073c-.091.13-.15.214-.05.765.03.165.092.487.169.887.224 1.169.573 2.992.617 3.402l.02.165c.056.457.093.762-.438.883l-.139.032c-.6.137-1.477.339-1.795.339-.317 0-1.196-.202-1.795-.34l-.138-.031c-.531-.121-.494-.425-.438-.883l.02-.165c.043-.41.393-2.239.617-3.407.076-.397.138-.718.168-.882.1-.55.041-.636-.05-.765a1.37 1.37 0 0 1-.048-.073c-.096-.155-1.09-.424-1.9-.643a44.202 44.202 0 0 1-.468-.128c-.721-.2-2.205-.043-3.01.042l-.316.033c-.65.061-.705.156-.49.255.154.071 1.094.423 1.94.74a376.995 376.995 0 0 1 1.192.445c.848.31 1.848.676 1.963 1.314.101.566-.357 1.355-.767 2.06-.111.19-.218.374-.31.546-.43.81-.442.905-.412 1.232.024.266.988.864 1.523 1.196.124.077.225.14.286.181.053.036.144.092.26.162.585.356 1.79 1.09 1.79 1.53 0 .528-1.674 1.908-2.203 2.25-.528.344-1.965 1.094-2.576 1.209-.612.114-1.566-.578-2.124-1.615-.524-.975-.112-1.937.221-2.716l.063-.147c.304-.72-.127-1.152-.42-1.447l-.095-.097-2.932-3.112a8.043 8.043 0 0 0-.254-.255c-.396-.385-.733-.711-.733-1.546 0-1.01 3.91-5.735 3.91-5.735s3.3.63 3.745.63c.355 0 1.04-.236 1.755-.482l.543-.185c.89-.297 1.483-.299 1.483-.299s.593.002 1.483.299c.18.06.363.123.544.185.714.246 1.4.482 1.755.482Zm-.567 16.712c.698.36 1.193.614 1.38.731.242.151.094.437-.127.593-.22.156-3.183 2.45-3.47 2.703l-.117.104c-.277.25-.63.568-.88.568-.252 0-.605-.319-.882-.569l-.116-.104c-.288-.253-3.25-2.546-3.471-2.702-.22-.156-.369-.442-.127-.593.188-.117.683-.372 1.381-.732l.664-.342c1.045-.54 2.347-1 2.55-1 .203 0 1.505.46 2.55 1l.665.343Z" clip-rule="evenodd"/><path fill="url(#b)" fill-rule="evenodd" d="M23.573 3.447 20.533 0H9.856l-3.04 3.447s-2.67-.74-3.93.52c0 0 3.56-.322 4.783 1.667 0 0 3.3.63 3.744.63.445 0 1.409-.37 2.298-.667.89-.297 1.483-.299 1.483-.299s.594.002 1.483.299c.89.296 1.854.667 2.299.667.445 0 3.744-.63 3.744-.63 1.224-1.989 4.783-1.668 4.783-1.668-1.26-1.26-3.93-.519-3.93-.519Z" clip-rule="evenodd"/><defs><linearGradient id="a" x1=".365" x2="30.023" y1="35.007" y2="35.007" gradientUnits="userSpaceOnUse"><stop stop-color="#F50"/><stop offset=".41" stop-color="#F50"/><stop offset=".582" stop-color="#FF2000"/><stop offset="1" stop-color="#FF2000"/></linearGradient><linearGradient id="b" x1="3.415" x2="27.503" y1="6.241" y2="6.241" gradientUnits="userSpaceOnUse"><stop stop-color="#FF452A"/><stop offset="1" stop-color="#FF2000"/></linearGradient></defs></svg>