<svg id="Layer_1" data-name="Layer 1" xmlns="http://www.w3.org/2000/svg" viewBox="0 0 500 500"><defs><style>.cls-1{fill:#ccc;}.cls-2{fill:#444;}.cls-3{fill:#ffc612;}.cls-4{fill:#2d2d2d;}.cls-5{fill:#f2a203;}.cls-6{fill:none;stroke:#000;stroke-linecap:round;stroke-linejoin:round;stroke-width:15px;}</style></defs><title>ideas</title><path class="cls-1" d="M222.65,464.45a28.1,28.1,0,0,0,56.17,0Z"/><path class="cls-2" d="M301.8,388.08H198v51.31c0,13.84,8.73,25.06,19.5,25.06H282.3c10.77,0,19.5-11.22,19.5-25.06Z"/><path class="cls-3" d="M389,205.17a139,139,0,1,0-248.84,85.12c5.61,7.67,41.22,57.09,57.9,97.79H301.8c15.48-37.75,47.23-83,56.23-95.48A138.4,138.4,0,0,0,389,205.17Z"/><path class="cls-4" d="M265.8,388.08v51.31c0,13.84-8.73,25.06-19.5,25.06h36c10.77,0,19.5-11.22,19.5-25.06V388.08Z"/><path class="cls-5" d="M250,66.19a140.63,140.63,0,0,0-18,1.16A139,139,0,0,1,322,292.6c-9,12.49-40.75,57.73-56.23,95.48h36c15.48-37.75,47.23-83,56.23-95.48A139,139,0,0,0,250,66.19Z"/><path class="cls-6" d="M389,205.17a139,139,0,1,0-248.84,85.12c5.61,7.67,41.22,57.09,57.9,97.79H301.8c15.48-37.75,47.23-83,56.23-95.48A138.4,138.4,0,0,0,389,205.17Z"/><path class="cls-6" d="M301.8,388.08H198v51.31c0,13.84,8.73,25.06,19.5,25.06H282.3c10.77,0,19.5-11.22,19.5-25.06Z"/><line class="cls-6" x1="190.99" y1="413.23" x2="309.98" y2="413.23"/><line class="cls-6" x1="190.99" y1="437.83" x2="309.98" y2="437.83"/><path class="cls-6" d="M222.65,464.45a28.1,28.1,0,0,0,56.17,0Z"/><path class="cls-6" d="M229.06,388.08s5.57-113.41-21.18-139.59c-23.08-22.59-39,4.61-24.78,20.48,12.47,13.89,66.82,13,66.82,13"/><path class="cls-6" d="M270.79,388.08S265.21,274.67,292,248.49C315,225.9,331,253.1,316.74,269c-12.47,13.89-66.82,13-66.82,13"/><line class="cls-6" x1="250" y1="34.03" x2="250" y2="8.46"/><line class="cls-6" x1="339.28" y1="50.52" x2="350.16" y2="27.38"/><line class="cls-6" x1="400.08" y1="99.94" x2="421.83" y2="86.48"/><line class="cls-6" x1="160.72" y1="50.52" x2="149.84" y2="27.38"/><line class="cls-6" x1="99.92" y1="99.94" x2="78.17" y2="86.48"/></svg>